<svg version="1.1" id="Layer_1" xmlns="http://www.w3.org/2000/svg" xmlns:xlink="http://www.w3.org/1999/xlink" x="0px" y="0px"
	 width="100%" viewBox="0 0 786 486" enable-background="new 0 0 786 486" xml:space="preserve">
<path fill="#E3F4F1" opacity="1.000000" stroke="none" 
	d="
M583.000000,487.000000 
	C388.666656,487.000000 194.833328,487.000000 1.000000,487.000000 
	C1.000000,325.000000 1.000000,163.000000 1.000000,1.000000 
	C263.000000,1.000000 525.000000,1.000000 787.000000,1.000000 
	C787.000000,163.000000 787.000000,325.000000 787.000000,487.000000 
	C719.166687,487.000000 651.333313,487.000000 583.000000,487.000000 
M367.761444,388.320862 
	C372.354462,401.154358 377.157715,413.918610 381.419189,426.861237 
	C382.792938,431.033508 385.361450,431.065765 388.619751,430.873260 
	C391.892181,430.679810 395.332886,431.952911 396.941162,427.003693 
	C400.689575,415.468536 405.067810,404.137756 409.210632,392.731323 
	C409.835175,391.011780 410.566010,389.330841 411.600952,386.751587 
	C410.937927,404.420502 410.318207,420.936188 409.699127,437.434784 
	C417.480682,437.434784 424.030762,437.434784 430.504150,437.434784 
	C430.504150,408.945343 430.504150,380.889648 430.504150,352.361511 
	C423.683563,352.361511 417.211975,352.542328 410.757751,352.286041 
	C407.480560,352.155853 406.068878,353.461395 405.092651,356.411682 
	C400.497925,370.297363 395.735016,384.127472 391.007019,397.968811 
	C390.681335,398.922150 390.150238,399.805328 389.730927,400.687042 
	C384.412140,385.896301 379.234131,371.334229 373.881958,356.836426 
	C373.269348,355.176971 371.746918,352.671906 370.537323,352.607544 
	C363.132416,352.213531 355.696075,352.410431 348.294861,352.410431 
	C348.294861,381.221832 348.294861,409.297424 348.294861,437.481842 
	C355.137848,437.481842 361.671600,437.481842 369.362762,437.481842 
	C368.419373,420.810760 367.501129,404.584534 366.932312,388.061584 
	C366.932312,388.061584 367.281219,387.764343 367.761444,388.320862 
M503.174683,45.434444 
	C428.194946,45.434402 353.215240,45.434326 278.235504,45.434559 
	C276.902527,45.434563 275.566223,45.377365 274.237183,45.450634 
	C268.461060,45.769051 265.080444,49.178082 264.850647,54.968731 
	C264.758209,57.297832 264.828400,59.633533 264.830780,61.966225 
	C264.880951,110.951225 264.463440,159.943253 265.196930,208.918030 
	C265.523010,230.692535 276.152954,248.018356 295.147949,258.837585 
	C312.031891,268.454376 329.746429,276.613586 347.101288,285.402405 
	C349.897278,286.818359 352.729492,288.162811 356.414978,289.965973 
	C356.921387,281.724457 357.558502,274.167358 357.770782,266.598328 
	C357.863373,263.296753 355.981567,261.804810 352.291962,262.049805 
	C347.155548,262.390869 341.955261,262.267120 336.812378,261.909760 
	C326.265198,261.176880 317.235077,252.584900 315.868195,242.328476 
	C315.151276,236.949203 316.962677,233.390350 320.887695,233.083420 
	C325.792816,232.699860 327.507874,235.781647 328.132599,240.122116 
	C328.846222,245.080139 331.709381,248.725891 336.752777,249.126938 
	C343.325897,249.649658 349.971985,249.254807 356.757294,249.254807 
	C357.363800,242.007629 357.729034,235.027222 358.618469,228.114243 
	C359.065704,224.638351 358.071198,223.230377 354.747955,222.140045 
	C335.473236,215.816132 324.572998,202.359039 321.878693,182.319138 
	C321.492249,179.444702 320.372131,178.120163 317.597382,177.175598 
	C305.396454,173.022278 297.174164,164.673416 293.910126,152.198090 
	C286.144745,122.518379 298.436371,89.623360 334.063202,76.901390 
	C342.474487,73.897804 345.650543,76.013153 345.805847,84.914520 
	C345.967255,94.167656 345.841827,103.425797 345.841827,111.799789 
	C353.239807,110.959946 361.092499,109.712357 368.989441,109.286728 
	C375.107056,108.957001 377.504669,110.858871 378.064026,116.782516 
	C378.712769,123.652832 378.251068,130.627182 378.292145,137.556259 
	C378.302521,139.307587 377.669769,141.858276 378.570007,142.671143 
	C382.474060,146.196381 386.836182,149.214340 390.779816,152.224442 
	C392.541565,150.381775 395.522278,146.752914 399.047455,143.766861 
	C401.197815,141.945389 401.226288,140.342072 401.093658,137.823608 
	C400.738129,131.074585 400.509857,124.254005 401.102081,117.538658 
	C401.663300,111.175026 403.869690,109.582466 410.153259,109.225670 
	C412.465973,109.094353 414.836853,109.156624 417.120972,109.514702 
	C422.781158,110.402054 428.406616,111.510971 433.564209,112.443733 
	C433.564209,103.272720 433.447174,93.987793 433.599213,84.707275 
	C433.733887,76.485298 436.991821,74.270241 444.681915,76.820648 
	C474.795013,86.807556 492.311127,115.862213 486.802399,146.931320 
	C484.660858,159.009491 479.089630,169.485687 467.631042,174.472137 
	C460.399811,177.618942 457.680969,181.628098 456.005768,189.111008 
	C452.187561,206.166595 440.851624,217.082870 424.250427,222.599640 
	C422.897217,223.049332 420.938538,224.761566 420.977844,225.823669 
	C421.264893,233.586258 421.990936,241.332596 422.614929,249.565353 
	C428.420197,249.565353 433.711761,249.610840 439.002228,249.554504 
	C446.617584,249.473419 449.903839,246.915161 451.494049,239.418854 
	C452.376160,235.260590 454.245636,232.568863 458.835022,233.108459 
	C462.624786,233.554016 464.532928,237.162277 463.815704,242.005539 
	C462.207550,252.864334 453.123322,261.286530 442.034760,261.956635 
	C437.384705,262.237640 432.709412,262.118591 428.045380,262.146576 
	C422.577087,262.179352 421.209900,263.350342 421.526276,268.764587 
	C421.932037,275.707520 422.699158,282.629333 423.343231,289.930420 
	C424.504303,289.520020 425.446655,289.294434 426.290985,288.872650 
	C444.151001,279.950043 462.082123,271.164856 479.830902,262.025635 
	C503.529022,249.822968 515.345276,229.968201 515.488525,203.539490 
	C515.753052,154.720871 515.585938,105.899780 515.544800,57.079762 
	C515.537842,48.790195 512.389160,45.723320 503.174683,45.434444 
M555.135315,419.499268 
	C555.135315,425.444153 555.135315,431.389008 555.135315,437.586670 
	C562.997009,437.586670 570.232422,437.586670 577.530640,437.586670 
	C577.530640,421.704803 578.824829,405.964233 577.203857,390.529877 
	C575.167358,371.139435 558.404053,364.685272 542.058105,375.710754 
	C540.321533,376.882019 538.640686,378.135773 536.638550,379.561646 
	C535.859314,376.844849 535.236084,374.671783 534.597229,372.444244 
	C528.518860,372.444244 522.600098,372.444244 516.486267,372.444244 
	C516.486267,394.303131 516.486267,415.851807 516.486267,437.550781 
	C524.077454,437.550781 531.314575,437.550781 539.007446,437.550781 
	C539.007446,424.279114 538.983337,411.316132 539.020752,398.353302 
	C539.033569,393.906250 543.316467,390.131287 548.294617,390.030701 
	C552.595581,389.943817 554.749878,392.119659 554.942444,397.506592 
	C555.192383,404.497589 555.087524,411.501282 555.135315,419.499268 
M86.696609,416.758179 
	C98.528221,444.615173 138.342026,445.199280 151.112671,426.315216 
	C147.351471,421.823517 143.532761,417.263123 139.564285,412.523895 
	C138.005432,413.764435 136.769119,414.845612 135.437317,415.792480 
	C126.110992,422.423279 114.656395,420.626740 109.661087,411.029816 
	C104.089401,400.325592 104.058517,389.155701 110.510292,378.696594 
	C115.782318,370.149994 125.492592,368.364105 133.973511,373.733337 
	C135.460480,374.674683 136.951935,375.608917 138.661469,376.685028 
	C142.654053,371.791382 146.401886,367.197723 150.105408,362.658386 
	C134.660629,345.110352 104.566406,347.790527 90.885941,367.894623 
	C80.616470,382.986115 80.609253,399.334991 86.696609,416.758179 
M663.040588,417.316711 
	C662.240906,415.791229 661.441284,414.265747 660.255920,412.004272 
	C667.163574,412.004272 673.114258,412.004272 679.064941,412.004272 
	C685.189697,412.004272 691.314453,412.004272 697.804565,412.004272 
	C698.157349,408.589966 698.703064,405.654846 698.723389,402.716125 
	C698.825256,388.002655 691.754333,375.957672 681.088806,372.400391 
	C667.551514,367.885254 653.832397,372.022034 645.418335,383.273956 
	C641.003479,389.177887 638.881226,395.860443 638.701721,403.272095 
	C638.366882,417.094513 642.529968,428.579865 655.370178,435.406158 
	C667.624695,441.921143 685.743225,440.007446 696.129944,431.213257 
	C693.811401,426.991516 691.456848,422.704132 688.999268,418.229309 
	C680.048767,422.438477 671.663147,424.122833 663.040588,417.316711 
M483.096039,438.976837 
	C489.813202,437.729034 496.343109,436.027771 501.880707,431.374756 
	C499.398407,426.916840 496.998962,422.607697 494.637573,418.366913 
	C478.636536,424.503510 468.967957,422.316803 466.548401,411.981934 
	C478.735291,411.981934 490.846863,411.981934 503.957336,411.981934 
	C503.957336,406.731750 504.308258,401.778137 503.896454,396.888824 
	C502.135590,375.983582 482.020325,364.540405 463.012238,373.481293 
	C444.964478,381.970490 438.172211,407.086426 449.312469,424.604858 
	C457.001617,436.696350 468.651245,440.075317 483.096039,438.976837 
M382.003693,193.290970 
	C377.120087,196.080811 373.523682,200.024780 373.025879,205.741302 
	C371.526215,222.963623 370.068970,240.197311 369.099060,257.454895 
	C368.600616,266.324188 374.954163,272.562103 383.806183,272.962311 
	C387.294800,273.120056 390.796814,273.045959 394.291504,272.994019 
	C404.759308,272.838501 411.286713,266.191956 410.569305,255.853012 
	C409.464294,239.927872 408.235809,224.004013 406.627716,208.123352 
	C405.294067,194.952942 395.334076,188.876144 382.003693,193.290970 
M224.117508,408.281769 
	C221.482010,397.468079 218.922775,386.634552 216.118164,375.864929 
	C215.752060,374.459167 214.176025,372.374023 213.073242,372.317932 
	C206.495651,371.983459 199.892456,372.152466 193.424133,372.152466 
	C193.239990,373.068756 193.043030,373.431030 193.130600,373.701080 
	C199.791199,394.239807 206.425430,414.787537 213.281357,435.261078 
	C213.676331,436.440552 215.862640,437.691528 217.262436,437.748413 
	C223.741638,438.011810 230.239822,437.765076 236.726349,437.913422 
	C239.352966,437.973480 240.454727,437.018890 241.225815,434.484283 
	C244.900085,422.406677 248.838104,410.409546 252.643509,398.371521 
	C255.338196,389.847137 257.971039,381.303192 260.748535,372.392456 
	C253.326691,372.392456 246.409454,372.392456 238.978867,372.392456 
	C235.187057,387.957153 231.385849,403.560364 227.584641,419.163605 
	C227.301819,419.156891 227.018997,419.150177 226.736160,419.143463 
	C225.923233,415.793396 225.110306,412.443359 224.117508,408.281769 
M596.950867,369.278473 
	C595.282593,374.730713 589.916199,371.171661 586.675720,373.716034 
	C586.675720,378.797424 586.675720,384.199188 586.675720,389.747772 
	C589.560913,389.942780 592.146057,390.117523 595.326965,390.332520 
	C595.326965,399.242798 594.902100,407.883942 595.409302,416.470001 
	C596.750671,439.175476 616.322754,443.423584 634.831726,436.053833 
	C633.738831,431.097076 632.641113,426.118317 631.577209,421.292755 
	C629.150208,421.292755 627.179504,421.313934 625.209534,421.288147 
	C621.542175,421.240173 618.706177,419.370361 618.546448,415.842316 
	C618.160156,407.306549 618.421082,398.741486 618.421082,389.710876 
	C623.405884,389.710876 627.979370,389.710876 632.487183,389.710876 
	C632.487183,383.651978 632.487183,378.090973 632.487183,372.008850 
	C627.548767,372.008850 622.973450,372.008850 617.785645,372.008850 
	C617.785645,366.114838 617.785645,360.737793 617.785645,355.410156 
	C611.205322,355.410156 605.270630,355.410156 599.126648,355.410156 
	C598.397644,359.899902 597.706421,364.157135 596.950867,369.278473 
M337.165192,428.278656 
	C336.417755,425.869446 336.033752,421.602814 334.859863,421.373138 
	C329.819305,420.386810 330.029785,416.972626 330.023987,413.460205 
	C329.990356,392.979187 330.013062,372.498077 329.996887,352.016998 
	C329.995483,350.260925 329.849335,348.504974 329.769196,346.722137 
	C322.022278,346.722137 314.782837,346.722137 307.135162,346.722137 
	C307.135162,348.714661 307.135162,350.351349 307.135162,351.988068 
	C307.135162,371.969604 307.107086,391.951233 307.164185,411.932587 
	C307.173187,415.082672 307.355652,418.263275 307.820496,421.375610 
	C309.796143,434.603241 315.683685,439.468170 329.069061,439.146851 
	C338.714203,438.915314 339.098083,438.450012 337.165192,428.278656 
M160.992264,433.310669 
	C161.107147,434.735046 161.222031,436.159424 161.327988,437.473083 
	C169.031570,437.473083 176.264740,437.473083 183.436508,437.473083 
	C183.436508,415.531006 183.436508,393.984436 183.436508,372.520081 
	C175.760132,372.520081 168.519135,372.520081 160.992157,372.520081 
	C160.992157,392.718689 160.992157,412.532959 160.992264,433.310669 
M285.387146,372.128052 
	C280.300964,372.128052 275.214783,372.128052 270.259521,372.128052 
	C270.259521,394.469818 270.259521,415.994934 270.259521,437.638611 
	C277.778381,437.638611 284.872040,437.638611 292.222321,437.638611 
	C292.222321,415.746552 292.222321,394.089539 292.222321,372.128143 
	C289.981628,372.128143 288.163849,372.128143 285.387146,372.128052 
M473.987549,124.659271 
	C470.580566,108.729851 461.062988,97.928177 445.956055,90.862808 
	C446.282043,116.745186 450.407135,141.320023 456.395966,165.694763 
	C465.877625,162.959183 472.552643,156.478470 473.752411,147.286636 
	C474.685730,140.135849 474.033173,132.778076 473.987549,124.659271 
M328.992065,136.542374 
	C330.699310,121.584206 332.406555,106.626038 334.224030,90.701973 
	C331.889526,91.513741 331.103119,91.693329 330.402710,92.044472 
	C312.869202,100.834946 302.438354,119.665604 304.181580,139.343628 
	C305.491791,154.133591 311.062744,162.097214 323.108398,165.696259 
	C325.036987,156.233261 326.955902,146.817810 328.992065,136.542374 
M430.397156,205.963577 
	C439.337616,199.256897 444.728424,190.671814 445.114380,179.075256 
	C428.272461,176.332733 415.759277,167.779419 406.722137,153.474625 
	C399.783051,159.439926 396.416595,166.642212 395.542999,175.257111 
	C395.248108,178.165070 395.778076,179.556427 398.889587,180.634064 
	C410.462860,184.642303 416.925598,193.139999 418.893982,205.134064 
	C419.180664,206.881088 419.266205,208.661133 419.537323,211.340332 
	C423.349426,209.492447 426.573547,207.929581 430.397156,205.963577 
M339.210999,177.973694 
	C337.499268,178.371765 335.787537,178.769852 334.169678,179.146088 
	C334.941071,194.451401 345.926056,207.762390 358.329437,210.077454 
	C360.969543,203.482437 362.405640,196.289536 366.375122,190.996567 
	C370.318695,185.738190 376.810303,182.390717 382.964935,177.597412 
	C382.660431,169.394089 380.083801,160.782242 372.205353,153.982407 
	C364.409790,166.105927 353.783112,174.126389 339.210999,177.973694 
M352.486206,123.919083 
	C345.753723,125.322334 341.795685,128.718063 341.580750,136.315094 
	C341.427521,141.730957 339.783325,147.112961 338.713257,152.491928 
	C337.859741,156.782120 336.868469,161.044907 335.871490,165.627304 
	C357.888123,161.284149 370.305328,137.781540 365.722290,121.401001 
	C361.627350,122.153938 357.443634,122.923203 352.486206,123.919083 
M423.538116,154.955627 
	C428.907776,160.303146 435.124023,164.081818 442.768494,165.647415 
	C442.869049,164.836792 443.053925,164.333450 442.969818,163.880005 
	C440.910889,152.775101 438.881897,141.663742 436.660980,130.590973 
	C436.406494,129.322311 435.299316,127.820862 434.164642,127.199272 
	C427.667786,123.640060 420.738678,121.659645 412.914337,122.032219 
	C411.341675,134.646591 414.818939,145.272980 423.538116,154.955627 
M394.880341,304.551758 
	C398.012146,303.002808 401.148315,301.462646 404.274841,299.903107 
	C410.322784,296.886292 411.343903,295.038239 410.645508,288.144867 
	C410.438904,286.105652 410.055145,284.084381 409.765045,282.138733 
	C396.110016,286.844299 383.002716,286.690155 369.895477,282.325592 
	C367.135345,293.766052 368.097076,295.975922 377.906403,300.875427 
	C380.138489,301.990326 382.276611,303.544678 384.642517,304.077850 
	C387.723389,304.772156 390.988403,304.649323 394.880341,304.551758 
M183.805862,357.101959 
	C185.297638,349.823486 183.168015,344.805603 177.634521,342.561127 
	C172.025711,340.286041 164.938599,342.171875 161.931076,346.739655 
	C158.460724,352.010345 160.025238,359.172089 165.374313,362.501312 
	C171.479675,366.301270 179.339966,364.255310 183.805862,357.101959 
M278.054749,363.998199 
	C279.875031,364.022827 281.716492,364.236786 283.511505,364.035828 
	C288.471954,363.480469 292.469116,359.429901 292.995636,354.645935 
	C293.606873,349.091675 291.080597,344.551941 286.285004,342.586975 
	C279.778137,339.920807 272.257080,342.611359 269.758453,348.499115 
	C267.066437,354.842682 269.930115,360.724976 278.054749,363.998199 
z"/>
<path fill="#235889" opacity="1.000000" stroke="none" 
	d="
M503.628357,45.434700 
	C512.389160,45.723320 515.537842,48.790195 515.544800,57.079762 
	C515.585938,105.899780 515.753052,154.720871 515.488525,203.539490 
	C515.345276,229.968201 503.529022,249.822968 479.830902,262.025635 
	C462.082123,271.164856 444.151001,279.950043 426.290985,288.872650 
	C425.446655,289.294434 424.504303,289.520020 423.343231,289.930420 
	C422.699158,282.629333 421.932037,275.707520 421.526276,268.764587 
	C421.209900,263.350342 422.577087,262.179352 428.045380,262.146576 
	C432.709412,262.118591 437.384705,262.237640 442.034760,261.956635 
	C453.123322,261.286530 462.207550,252.864334 463.815704,242.005539 
	C464.532928,237.162277 462.624786,233.554016 458.835022,233.108459 
	C454.245636,232.568863 452.376160,235.260590 451.494049,239.418854 
	C449.903839,246.915161 446.617584,249.473419 439.002228,249.554504 
	C433.711761,249.610840 428.420197,249.565353 422.614929,249.565353 
	C421.990936,241.332596 421.264893,233.586258 420.977844,225.823669 
	C420.938538,224.761566 422.897217,223.049332 424.250427,222.599640 
	C440.851624,217.082870 452.187561,206.166595 456.005768,189.111008 
	C457.680969,181.628098 460.399811,177.618942 467.631042,174.472137 
	C479.089630,169.485687 484.660858,159.009491 486.802399,146.931320 
	C492.311127,115.862213 474.795013,86.807556 444.681915,76.820648 
	C436.991821,74.270241 433.733887,76.485298 433.599213,84.707275 
	C433.447174,93.987793 433.564209,103.272720 433.564209,112.443733 
	C428.406616,111.510971 422.781158,110.402054 417.120972,109.514702 
	C414.836853,109.156624 412.465973,109.094353 410.153259,109.225670 
	C403.869690,109.582466 401.663300,111.175026 401.102081,117.538658 
	C400.509857,124.254005 400.738129,131.074585 401.093658,137.823608 
	C401.226288,140.342072 401.197815,141.945389 399.047455,143.766861 
	C395.522278,146.752914 392.541565,150.381775 390.779816,152.224442 
	C386.836182,149.214340 382.474060,146.196381 378.570007,142.671143 
	C377.669769,141.858276 378.302521,139.307587 378.292145,137.556259 
	C378.251068,130.627182 378.712769,123.652832 378.064026,116.782516 
	C377.504669,110.858871 375.107056,108.957001 368.989441,109.286728 
	C361.092499,109.712357 353.239807,110.959946 345.841827,111.799789 
	C345.841827,103.425797 345.967255,94.167656 345.805847,84.914520 
	C345.650543,76.013153 342.474487,73.897804 334.063202,76.901390 
	C298.436371,89.623360 286.144745,122.518379 293.910126,152.198090 
	C297.174164,164.673416 305.396454,173.022278 317.597382,177.175598 
	C320.372131,178.120163 321.492249,179.444702 321.878693,182.319138 
	C324.572998,202.359039 335.473236,215.816132 354.747955,222.140045 
	C358.071198,223.230377 359.065704,224.638351 358.618469,228.114243 
	C357.729034,235.027222 357.363800,242.007629 356.757294,249.254807 
	C349.971985,249.254807 343.325897,249.649658 336.752777,249.126938 
	C331.709381,248.725891 328.846222,245.080139 328.132599,240.122116 
	C327.507874,235.781647 325.792816,232.699860 320.887695,233.083420 
	C316.962677,233.390350 315.151276,236.949203 315.868195,242.328476 
	C317.235077,252.584900 326.265198,261.176880 336.812378,261.909760 
	C341.955261,262.267120 347.155548,262.390869 352.291962,262.049805 
	C355.981567,261.804810 357.863373,263.296753 357.770782,266.598328 
	C357.558502,274.167358 356.921387,281.724457 356.414978,289.965973 
	C352.729492,288.162811 349.897278,286.818359 347.101288,285.402405 
	C329.746429,276.613586 312.031891,268.454376 295.147949,258.837585 
	C276.152954,248.018356 265.523010,230.692535 265.196930,208.918030 
	C264.463440,159.943253 264.880951,110.951225 264.830780,61.966225 
	C264.828400,59.633533 264.758209,57.297832 264.850647,54.968731 
	C265.080444,49.178082 268.461060,45.769051 274.237183,45.450634 
	C275.566223,45.377365 276.902527,45.434563 278.235504,45.434559 
	C353.215240,45.434326 428.194946,45.434402 503.628357,45.434700 
z"/>
<path fill="#EE4A71" opacity="1.000000" stroke="none" 
	d="
M366.582947,388.358276 
	C367.501129,404.584534 368.419373,420.810760 369.362762,437.481842 
	C361.671600,437.481842 355.137848,437.481842 348.294861,437.481842 
	C348.294861,409.297424 348.294861,381.221832 348.294861,352.410431 
	C355.696075,352.410431 363.132416,352.213531 370.537323,352.607544 
	C371.746918,352.671906 373.269348,355.176971 373.881958,356.836426 
	C379.234131,371.334229 384.412140,385.896301 389.730927,400.687042 
	C390.150238,399.805328 390.681335,398.922150 391.007019,397.968811 
	C395.735016,384.127472 400.497925,370.297363 405.092651,356.411682 
	C406.068878,353.461395 407.480560,352.155853 410.757751,352.286041 
	C417.211975,352.542328 423.683563,352.361511 430.504150,352.361511 
	C430.504150,380.889648 430.504150,408.945343 430.504150,437.434784 
	C424.030762,437.434784 417.480682,437.434784 409.699127,437.434784 
	C410.318207,420.936188 410.937927,404.420502 411.600952,386.751587 
	C410.566010,389.330841 409.835175,391.011780 409.210632,392.731323 
	C405.067810,404.137756 400.689575,415.468536 396.941162,427.003693 
	C395.332886,431.952911 391.892181,430.679810 388.619751,430.873260 
	C385.361450,431.065765 382.792938,431.033508 381.419189,426.861237 
	C377.157715,413.918610 372.354462,401.154358 367.488708,387.723236 
	C367.039001,386.537018 366.862000,385.948456 366.684998,385.359863 
	C366.502838,385.386230 366.320679,385.412598 366.138519,385.438934 
	C366.286652,386.412048 366.434814,387.385162 366.582947,388.358276 
z"/>
<path fill="#EE4970" opacity="1.000000" stroke="none" 
	d="
M555.135376,418.999390 
	C555.087524,411.501282 555.192383,404.497589 554.942444,397.506592 
	C554.749878,392.119659 552.595581,389.943817 548.294617,390.030701 
	C543.316467,390.131287 539.033569,393.906250 539.020752,398.353302 
	C538.983337,411.316132 539.007446,424.279114 539.007446,437.550781 
	C531.314575,437.550781 524.077454,437.550781 516.486267,437.550781 
	C516.486267,415.851807 516.486267,394.303131 516.486267,372.444244 
	C522.600098,372.444244 528.518860,372.444244 534.597229,372.444244 
	C535.236084,374.671783 535.859314,376.844849 536.638550,379.561646 
	C538.640686,378.135773 540.321533,376.882019 542.058105,375.710754 
	C558.404053,364.685272 575.167358,371.139435 577.203857,390.529877 
	C578.824829,405.964233 577.530640,421.704803 577.530640,437.586670 
	C570.232422,437.586670 562.997009,437.586670 555.135315,437.586670 
	C555.135315,431.389008 555.135315,425.444153 555.135376,418.999390 
z"/>
<path fill="#EE4870" opacity="1.000000" stroke="none" 
	d="
M86.512207,416.421631 
	C80.609253,399.334991 80.616470,382.986115 90.885941,367.894623 
	C104.566406,347.790527 134.660629,345.110352 150.105408,362.658386 
	C146.401886,367.197723 142.654053,371.791382 138.661469,376.685028 
	C136.951935,375.608917 135.460480,374.674683 133.973511,373.733337 
	C125.492592,368.364105 115.782318,370.149994 110.510292,378.696594 
	C104.058517,389.155701 104.089401,400.325592 109.661087,411.029816 
	C114.656395,420.626740 126.110992,422.423279 135.437317,415.792480 
	C136.769119,414.845612 138.005432,413.764435 139.564285,412.523895 
	C143.532761,417.263123 147.351471,421.823517 151.112671,426.315216 
	C138.342026,445.199280 98.528221,444.615173 86.512207,416.421631 
z"/>
<path fill="#EE486F" opacity="1.000000" stroke="none" 
	d="
M663.295105,417.606689 
	C671.663147,424.122833 680.048767,422.438477 688.999268,418.229309 
	C691.456848,422.704132 693.811401,426.991516 696.129944,431.213257 
	C685.743225,440.007446 667.624695,441.921143 655.370178,435.406158 
	C642.529968,428.579865 638.366882,417.094513 638.701721,403.272095 
	C638.881226,395.860443 641.003479,389.177887 645.418335,383.273956 
	C653.832397,372.022034 667.551514,367.885254 681.088806,372.400391 
	C691.754333,375.957672 698.825256,388.002655 698.723389,402.716125 
	C698.703064,405.654846 698.157349,408.589966 697.804565,412.004272 
	C691.314453,412.004272 685.189697,412.004272 679.064941,412.004272 
	C673.114258,412.004272 667.163574,412.004272 660.255920,412.004272 
	C661.441284,414.265747 662.240906,415.791229 663.295105,417.606689 
M661.276428,396.720886 
	C667.122131,396.720886 672.967834,396.720886 678.828674,396.720886 
	C678.433411,391.075317 676.476074,388.578705 672.276123,388.027740 
	C666.882568,387.320221 662.919373,390.085907 661.276428,396.720886 
z"/>
<path fill="#EE486F" opacity="1.000000" stroke="none" 
	d="
M482.638000,438.991516 
	C468.651245,440.075317 457.001617,436.696350 449.312469,424.604858 
	C438.172211,407.086426 444.964478,381.970490 463.012238,373.481293 
	C482.020325,364.540405 502.135590,375.983582 503.896454,396.888824 
	C504.308258,401.778137 503.957336,406.731750 503.957336,411.981934 
	C490.846863,411.981934 478.735291,411.981934 466.548401,411.981934 
	C468.967957,422.316803 478.636536,424.503510 494.637573,418.366913 
	C496.998962,422.607697 499.398407,426.916840 501.880707,431.374756 
	C496.343109,436.027771 489.813202,437.729034 482.638000,438.991516 
M478.352814,397.009766 
	C480.430511,397.009766 482.508179,397.009766 484.653107,397.009766 
	C483.818146,390.357300 481.866150,388.187866 477.004181,387.985992 
	C471.330170,387.750458 467.837402,390.676147 466.503906,397.009796 
	C470.175232,397.009796 473.790344,397.009796 478.352814,397.009766 
z"/>
<path fill="#EE486F" opacity="1.000000" stroke="none" 
	d="
M382.348206,193.136719 
	C395.334076,188.876144 405.294067,194.952942 406.627716,208.123352 
	C408.235809,224.004013 409.464294,239.927872 410.569305,255.853012 
	C411.286713,266.191956 404.759308,272.838501 394.291504,272.994019 
	C390.796814,273.045959 387.294800,273.120056 383.806183,272.962311 
	C374.954163,272.562103 368.600616,266.324188 369.099060,257.454895 
	C370.068970,240.197311 371.526215,222.963623 373.025879,205.741302 
	C373.523682,200.024780 377.120087,196.080811 382.348206,193.136719 
z"/>
<path fill="#EE4970" opacity="1.000000" stroke="none" 
	d="
M224.207443,408.687561 
	C225.110306,412.443359 225.923233,415.793396 226.736160,419.143463 
	C227.018997,419.150177 227.301819,419.156891 227.584641,419.163605 
	C231.385849,403.560364 235.187057,387.957153 238.978867,372.392456 
	C246.409454,372.392456 253.326691,372.392456 260.748535,372.392456 
	C257.971039,381.303192 255.338196,389.847137 252.643509,398.371521 
	C248.838104,410.409546 244.900085,422.406677 241.225815,434.484283 
	C240.454727,437.018890 239.352966,437.973480 236.726349,437.913422 
	C230.239822,437.765076 223.741638,438.011810 217.262436,437.748413 
	C215.862640,437.691528 213.676331,436.440552 213.281357,435.261078 
	C206.425430,414.787537 199.791199,394.239807 193.130600,373.701080 
	C193.043030,373.431030 193.239990,373.068756 193.424133,372.152466 
	C199.892456,372.152466 206.495651,371.983459 213.073242,372.317932 
	C214.176025,372.374023 215.752060,374.459167 216.118164,375.864929 
	C218.922775,386.634552 221.482010,397.468079 224.207443,408.687561 
z"/>
<path fill="#EE4970" opacity="1.000000" stroke="none" 
	d="
M596.983032,368.846405 
	C597.706421,364.157135 598.397644,359.899902 599.126648,355.410156 
	C605.270630,355.410156 611.205322,355.410156 617.785645,355.410156 
	C617.785645,360.737793 617.785645,366.114838 617.785645,372.008850 
	C622.973450,372.008850 627.548767,372.008850 632.487183,372.008850 
	C632.487183,378.090973 632.487183,383.651978 632.487183,389.710876 
	C627.979370,389.710876 623.405884,389.710876 618.421082,389.710876 
	C618.421082,398.741486 618.160156,407.306549 618.546448,415.842316 
	C618.706177,419.370361 621.542175,421.240173 625.209534,421.288147 
	C627.179504,421.313934 629.150208,421.292755 631.577209,421.292755 
	C632.641113,426.118317 633.738831,431.097076 634.831726,436.053833 
	C616.322754,443.423584 596.750671,439.175476 595.409302,416.470001 
	C594.902100,407.883942 595.326965,399.242798 595.326965,390.332520 
	C592.146057,390.117523 589.560913,389.942780 586.675720,389.747772 
	C586.675720,384.199188 586.675720,378.797424 586.675720,373.716034 
	C589.916199,371.171661 595.282593,374.730713 596.983032,368.846405 
z"/>
<path fill="#EE4970" opacity="1.000000" stroke="none" 
	d="
M337.243805,428.710541 
	C339.098083,438.450012 338.714203,438.915314 329.069061,439.146851 
	C315.683685,439.468170 309.796143,434.603241 307.820496,421.375610 
	C307.355652,418.263275 307.173187,415.082672 307.164185,411.932587 
	C307.107086,391.951233 307.135162,371.969604 307.135162,351.988068 
	C307.135162,350.351349 307.135162,348.714661 307.135162,346.722137 
	C314.782837,346.722137 322.022278,346.722137 329.769196,346.722137 
	C329.849335,348.504974 329.995483,350.260925 329.996887,352.016998 
	C330.013062,372.498077 329.990356,392.979187 330.023987,413.460205 
	C330.029785,416.972626 329.819305,420.386810 334.859863,421.373138 
	C336.033752,421.602814 336.417755,425.869446 337.243805,428.710541 
z"/>
<path fill="#EE4970" opacity="1.000000" stroke="none" 
	d="
M160.992218,432.828949 
	C160.992157,412.532959 160.992157,392.718689 160.992157,372.520081 
	C168.519135,372.520081 175.760132,372.520081 183.436508,372.520081 
	C183.436508,393.984436 183.436508,415.531006 183.436508,437.473083 
	C176.264740,437.473083 169.031570,437.473083 161.327988,437.473083 
	C161.222031,436.159424 161.107147,434.735046 160.992218,432.828949 
z"/>
<path fill="#EE4B72" opacity="1.000000" stroke="none" 
	d="
M285.866608,372.128113 
	C288.163849,372.128143 289.981628,372.128143 292.222321,372.128143 
	C292.222321,394.089539 292.222321,415.746552 292.222321,437.638611 
	C284.872040,437.638611 277.778381,437.638611 270.259521,437.638611 
	C270.259521,415.994934 270.259521,394.469818 270.259521,372.128052 
	C275.214783,372.128052 280.300964,372.128052 285.866608,372.128113 
z"/>
<path fill="#EE4970" opacity="1.000000" stroke="none" 
	d="
M474.036499,125.085785 
	C474.033173,132.778076 474.685730,140.135849 473.752411,147.286636 
	C472.552643,156.478470 465.877625,162.959183 456.395966,165.694763 
	C450.407135,141.320023 446.282043,116.745186 445.956055,90.862808 
	C461.062988,97.928177 470.580566,108.729851 474.036499,125.085785 
z"/>
<path fill="#EE4970" opacity="1.000000" stroke="none" 
	d="
M328.933441,136.972366 
	C326.955902,146.817810 325.036987,156.233261 323.108398,165.696259 
	C311.062744,162.097214 305.491791,154.133591 304.181580,139.343628 
	C302.438354,119.665604 312.869202,100.834946 330.402710,92.044472 
	C331.103119,91.693329 331.889526,91.513741 334.224030,90.701973 
	C332.406555,106.626038 330.699310,121.584206 328.933441,136.972366 
z"/>
<path fill="#24598A" opacity="1.000000" stroke="none" 
	d="
M430.097412,206.165146 
	C426.573547,207.929581 423.349426,209.492447 419.537323,211.340332 
	C419.266205,208.661133 419.180664,206.881088 418.893982,205.134064 
	C416.925598,193.139999 410.462860,184.642303 398.889587,180.634064 
	C395.778076,179.556427 395.248108,178.165070 395.542999,175.257111 
	C396.416595,166.642212 399.783051,159.439926 406.722137,153.474625 
	C415.759277,167.779419 428.272461,176.332733 445.114380,179.075256 
	C444.728424,190.671814 439.337616,199.256897 430.097412,206.165146 
z"/>
<path fill="#24598A" opacity="1.000000" stroke="none" 
	d="
M339.617371,177.902084 
	C353.783112,174.126389 364.409790,166.105927 372.205353,153.982407 
	C380.083801,160.782242 382.660431,169.394089 382.964935,177.597412 
	C376.810303,182.390717 370.318695,185.738190 366.375122,190.996567 
	C362.405640,196.289536 360.969543,203.482437 358.329437,210.077454 
	C345.926056,207.762390 334.941071,194.451401 334.169678,179.146088 
	C335.787537,178.769852 337.499268,178.371765 339.617371,177.902084 
z"/>
<path fill="#EE4970" opacity="1.000000" stroke="none" 
	d="
M352.873047,123.805771 
	C357.443634,122.923203 361.627350,122.153938 365.722290,121.401001 
	C370.305328,137.781540 357.888123,161.284149 335.871490,165.627304 
	C336.868469,161.044907 337.859741,156.782120 338.713257,152.491928 
	C339.783325,147.112961 341.427521,141.730957 341.580750,136.315094 
	C341.795685,128.718063 345.753723,125.322334 352.873047,123.805771 
z"/>
<path fill="#EE4A71" opacity="1.000000" stroke="none" 
	d="
M423.292542,154.699860 
	C414.818939,145.272980 411.341675,134.646591 412.914337,122.032219 
	C420.738678,121.659645 427.667786,123.640060 434.164642,127.199272 
	C435.299316,127.820862 436.406494,129.322311 436.660980,130.590973 
	C438.881897,141.663742 440.910889,152.775101 442.969818,163.880005 
	C443.053925,164.333450 442.869049,164.836792 442.768494,165.647415 
	C435.124023,164.081818 428.907776,160.303146 423.292542,154.699860 
z"/>
<path fill="#EE4C72" opacity="1.000000" stroke="none" 
	d="
M394.527252,304.714966 
	C390.988403,304.649323 387.723389,304.772156 384.642517,304.077850 
	C382.276611,303.544678 380.138489,301.990326 377.906403,300.875427 
	C368.097076,295.975922 367.135345,293.766052 369.895477,282.325592 
	C383.002716,286.690155 396.110016,286.844299 409.765045,282.138733 
	C410.055145,284.084381 410.438904,286.105652 410.645508,288.144867 
	C411.343903,295.038239 410.322784,296.886292 404.274841,299.903107 
	C401.148315,301.462646 398.012146,303.002808 394.527252,304.714966 
z"/>
<path fill="#EE4A71" opacity="1.000000" stroke="none" 
	d="
M183.644653,357.444824 
	C179.339966,364.255310 171.479675,366.301270 165.374313,362.501312 
	C160.025238,359.172089 158.460724,352.010345 161.931076,346.739655 
	C164.938599,342.171875 172.025711,340.286041 177.634521,342.561127 
	C183.168015,344.805603 185.297638,349.823486 183.644653,357.444824 
z"/>
<path fill="#EE486F" opacity="1.000000" stroke="none" 
	d="
M277.646057,363.929871 
	C269.930115,360.724976 267.066437,354.842682 269.758453,348.499115 
	C272.257080,342.611359 279.778137,339.920807 286.285004,342.586975 
	C291.080597,344.551941 293.606873,349.091675 292.995636,354.645935 
	C292.469116,359.429901 288.471954,363.480469 283.511505,364.035828 
	C281.716492,364.236786 279.875031,364.022827 277.646057,363.929871 
z"/>
<path fill="#E3F4F1" opacity="1.000000" stroke="none" 
	d="
M366.757629,388.209930 
	C366.434814,387.385162 366.286652,386.412048 366.138519,385.438934 
	C366.320679,385.412598 366.502838,385.386230 366.684998,385.359863 
	C366.862000,385.948456 367.039001,386.537018 367.248596,387.444977 
	C367.281219,387.764343 366.932312,388.061584 366.757629,388.209930 
z"/>
<path fill="#E3F0EE" opacity="1.000000" stroke="none" 
	d="
M661.106445,396.330994 
	C662.919373,390.085907 666.882568,387.320221 672.276123,388.027740 
	C676.476074,388.578705 678.433411,391.075317 678.828674,396.720886 
	C672.967834,396.720886 667.122131,396.720886 661.106445,396.330994 
z"/>
<path fill="#E3EEED" opacity="1.000000" stroke="none" 
	d="
M477.879120,397.009766 
	C473.790344,397.009796 470.175232,397.009796 466.503906,397.009796 
	C467.837402,390.676147 471.330170,387.750458 477.004181,387.985992 
	C481.866150,388.187866 483.818146,390.357300 484.653107,397.009766 
	C482.508179,397.009766 480.430511,397.009766 477.879120,397.009766 
z"/>
</svg>